<svg width="40" height="40" viewBox="0 0 40 40" fill="none" xmlns="http://www.w3.org/2000/svg">
<circle cx="20" cy="20" r="20" fill="#F9F3FF"/>
<path fill-rule="evenodd" clip-rule="evenodd" d="M17.429 16.969H21.143V18.819C21.678 17.755 23.05 16.799 25.111 16.799C29.062 16.799 30 18.917 30 22.803V30H26V23.688C26 21.475 25.465 20.227 24.103 20.227C22.214 20.227 21.429 21.572 21.429 23.687V30H17.429V16.969ZM10.57 29.83H14.57V16.799H10.57V29.83ZM15.143 12.55C15.1431 12.8853 15.0767 13.2172 14.9474 13.5266C14.8181 13.8359 14.6287 14.1165 14.39 14.352C14.1506 14.5901 13.8667 14.7787 13.5544 14.9071C13.2421 15.0354 12.9076 15.101 12.57 15.1C11.8896 15.0985 11.2369 14.8303 10.752 14.353C10.5143 14.1166 10.3255 13.8357 10.1965 13.5264C10.0675 13.217 10.0007 12.8852 10 12.55C10 11.873 10.27 11.225 10.753 10.747C11.2367 10.2679 11.8902 9.99938 12.571 10C13.253 10 13.907 10.269 14.39 10.747C14.873 11.225 15.143 11.873 15.143 12.55Z" fill="#288FFF"/>
</svg>
