<svg width="32" height="32" viewBox="0 0 32 32" fill="none" xmlns="http://www.w3.org/2000/svg">
<path d="M4.92144 8.38941C2.40544 11.1201 2.65877 14.6267 2.66677 14.6667V25.3334C2.66677 25.687 2.80725 26.0262 3.0573 26.2762C3.30734 26.5263 3.64648 26.6667 4.00011 26.6667H12.0001C13.4708 26.6667 14.6668 25.4707 14.6668 24.0001V14.6667C14.6668 14.3131 14.5263 13.974 14.2762 13.7239C14.0262 13.4739 13.6871 13.3334 13.3334 13.3334H9.22944C9.2582 12.6743 9.45511 12.0336 9.80144 11.4721C10.4788 10.4041 11.7548 9.67475 13.5961 9.30675L14.6668 9.09341V5.33341H13.3334C9.62277 5.33341 6.79211 6.36141 4.92144 8.38941ZM19.5974 8.38941C17.0801 11.1201 17.3348 14.6267 17.3428 14.6667V25.3334C17.3428 25.687 17.4832 26.0262 17.7333 26.2762C17.9833 26.5263 18.3225 26.6667 18.6761 26.6667H26.6761C28.1468 26.6667 29.3428 25.4707 29.3428 24.0001V14.6667C29.3428 14.3131 29.2023 13.974 28.9522 13.7239C28.7022 13.4739 28.3631 13.3334 28.0094 13.3334H23.9054C23.9342 12.6743 24.1311 12.0336 24.4774 11.4721C25.1548 10.4041 26.4308 9.67475 28.2721 9.30675L29.3428 9.09341V5.33341H28.0094C24.2988 5.33341 21.4681 6.36141 19.5974 8.38941Z" fill="#8C9C8D"/>
</svg>
