<svg width="40" height="40" viewBox="0 0 40 40" fill="none" xmlns="http://www.w3.org/2000/svg">
<circle cx="20" cy="20" r="20" fill="#F9F3FF"/>
<path d="M28.1566 28.6109C28.092 28.7286 27.9971 28.8267 27.8817 28.8951C27.7662 28.9636 27.6346 28.9998 27.5004 29H23.0004C22.8741 29 22.75 28.9681 22.6393 28.9073C22.5287 28.8465 22.4352 28.7587 22.3676 28.6522L18.5716 22.6869L13.0554 28.7544C12.9209 28.8988 12.7349 28.9845 12.5377 28.9927C12.3405 29.0009 12.1481 28.9311 12.002 28.7984C11.8559 28.6657 11.7681 28.4807 11.7575 28.2836C11.7469 28.0866 11.8144 27.8933 11.9454 27.7456L17.7363 21.3706L11.8676 12.1531C11.7953 12.0397 11.7548 11.909 11.7504 11.7746C11.746 11.6402 11.7778 11.5071 11.8425 11.3892C11.9072 11.2713 12.0024 11.173 12.1181 11.1045C12.2339 11.036 12.3659 10.9999 12.5004 11H17.0004C17.1266 11 17.2508 11.0319 17.3614 11.0927C17.472 11.1535 17.5655 11.2413 17.6332 11.3478L21.4291 17.3131L26.9454 11.2456C27.0798 11.1012 27.2658 11.0155 27.463 11.0073C27.6602 10.9991 27.8527 11.0689 27.9987 11.2016C28.1448 11.3343 28.2326 11.5193 28.2432 11.7164C28.2538 11.9134 28.1863 12.1067 28.0554 12.2544L22.2644 18.6247L28.1332 27.8478C28.2051 27.9613 28.2451 28.0919 28.2493 28.2262C28.2534 28.3604 28.2214 28.4933 28.1566 28.6109Z" fill="#2C3540"/>
</svg>
