<svg width="56" height="56" viewBox="0 0 56 56" fill="none" xmlns="http://www.w3.org/2000/svg">
<path d="M28 3.5C22.8964 3.50602 18.0036 5.53607 14.3949 9.14484C10.7861 12.7536 8.75603 17.6464 8.75001 22.75C8.74532 26.9204 10.1075 30.9774 12.628 34.3C12.628 34.3 13.153 34.9913 13.2388 35.091L28 52.5L42.7683 35.0823C42.8453 34.9895 43.372 34.3 43.372 34.3L43.3738 34.2948C45.8926 30.9734 47.2541 26.9184 47.25 22.75C47.244 17.6464 45.2139 12.7536 41.6052 9.14484C37.9964 5.53607 33.1036 3.50602 28 3.5ZM28 29.75C26.6155 29.75 25.2622 29.3395 24.111 28.5703C22.9599 27.8011 22.0627 26.7079 21.5329 25.4288C21.003 24.1497 20.8644 22.7422 21.1345 21.3844C21.4046 20.0265 22.0713 18.7792 23.0503 17.8003C24.0292 16.8213 25.2765 16.1546 26.6344 15.8845C27.9922 15.6144 29.3997 15.753 30.6788 16.2828C31.9579 16.8127 33.0511 17.7099 33.8203 18.861C34.5895 20.0122 35 21.3655 35 22.75C34.9977 24.6058 34.2595 26.3849 32.9472 27.6972C31.6349 29.0094 29.8558 29.7477 28 29.75Z" fill="#288FFF"/>
</svg>
