<svg width="56" height="56" viewBox="0 0 56 56" fill="none" xmlns="http://www.w3.org/2000/svg">
<path d="M14.448 44.3334C14.1182 44.3334 13.8413 44.2214 13.6173 43.9974C13.3933 43.7734 13.2813 43.4957 13.2813 43.1644C13.2813 42.833 13.3933 42.5561 13.6173 42.3337C13.8413 42.1112 14.1182 42 14.448 42H16.702L21.084 27.1974C21.3064 26.3651 21.7568 25.7071 22.435 25.2234C23.1132 24.7396 23.8614 24.4985 24.6797 24.5H31.3203C32.1401 24.5 32.8891 24.7411 33.5673 25.2234C34.244 25.7071 34.6936 26.3651 34.916 27.1974L39.298 42H41.552C41.8818 42 42.1587 42.112 42.3827 42.336C42.6067 42.56 42.7187 42.8377 42.7187 43.169C42.7187 43.5004 42.6067 43.7772 42.3827 43.9997C42.1587 44.2221 41.8818 44.3334 41.552 44.3334H14.448ZM26.8333 17.2317V10.2317C26.8333 9.90035 26.9453 9.62268 27.1693 9.39868C27.3933 9.17468 27.671 9.06268 28.0023 9.06268C28.3337 9.06268 28.6106 9.17468 28.833 9.39868C29.0554 9.62268 29.1667 9.89957 29.1667 10.2293V17.2294C29.1667 17.5607 29.0547 17.8384 28.8307 18.0624C28.6067 18.2864 28.329 18.3976 27.9977 18.396C27.6663 18.3945 27.3894 18.2832 27.167 18.0624C26.9446 17.8415 26.8333 17.5638 26.8333 17.2294M38.724 21.189L43.729 16.2307C43.9468 16.0129 44.2112 15.9087 44.5223 15.918C44.8366 15.9289 45.1096 16.0502 45.3413 16.282C45.5544 16.4951 45.661 16.7526 45.661 17.0544C45.661 17.3577 45.5521 17.6182 45.3343 17.836L40.376 22.8527C40.1489 23.0798 39.8813 23.2011 39.5733 23.2167C39.2653 23.2322 38.9822 23.1109 38.724 22.8527C38.4658 22.5945 38.3374 22.3168 38.339 22.0197C38.3406 21.7226 38.4689 21.4457 38.724 21.189ZM44.3333 32.3984H51.3333C51.6647 32.3984 51.9416 32.5104 52.164 32.7344C52.3865 32.9584 52.4984 33.2352 52.5 33.565C52.5016 33.8948 52.3896 34.1717 52.164 34.3957C51.9384 34.6197 51.6616 34.7317 51.3333 34.7317H44.3333C44.002 34.7317 43.7251 34.6197 43.5027 34.3957C43.2787 34.1717 43.1667 33.894 43.1667 33.5627C43.1667 33.2314 43.2787 32.9545 43.5027 32.732C43.7267 32.5096 44.0036 32.3976 44.3333 32.396M15.624 22.8434L10.6657 17.836C10.4479 17.6182 10.3444 17.353 10.3553 17.0403C10.3647 16.7277 10.486 16.4555 10.7193 16.2237C10.9324 16.0106 11.1899 15.904 11.4917 15.904C11.7934 15.904 12.054 16.0129 12.2733 16.2307L17.29 21.1867C17.5171 21.4138 17.6384 21.6814 17.654 21.9894C17.668 22.2974 17.5467 22.5805 17.29 22.8387C17.0318 23.0954 16.7541 23.2237 16.457 23.2237C16.1599 23.2237 15.8822 23.0954 15.624 22.8387M4.66667 34.7317C4.33533 34.7317 4.05844 34.6197 3.836 34.3957C3.612 34.1717 3.5 33.894 3.5 33.5627C3.5 33.2314 3.612 32.9545 3.836 32.732C4.06 32.5096 4.33689 32.3976 4.66667 32.396H11.6667C11.998 32.396 12.2749 32.5088 12.4973 32.7344C12.7198 32.9599 12.8318 33.2368 12.8333 33.565C12.8349 33.8932 12.7229 34.1701 12.4973 34.3957C12.2718 34.6212 11.9949 34.7332 11.6667 34.7317H4.66667Z" fill="#FF4A4A"/>
</svg>
