<svg width="56" height="56" viewBox="0 0 56 56" fill="none" xmlns="http://www.w3.org/2000/svg">
<path d="M0 28C0 12.536 12.536 0 28 0C43.464 0 56 12.536 56 28V56H28C12.536 56 0 43.464 0 28Z" fill="#388E3C"/>
<path d="M29.5002 15C26.8978 14.9991 24.34 15.6753 22.078 16.9621C19.816 18.2489 17.9278 20.1021 16.5987 22.3395C15.2697 24.5769 14.5456 27.1216 14.4977 29.7235C14.4497 32.3255 15.0795 34.8951 16.3252 37.18L14.5502 43.405C14.4877 43.6236 14.486 43.8551 14.5454 44.0745C14.6047 44.294 14.7227 44.4931 14.8868 44.6505C15.0508 44.8079 15.2547 44.9175 15.4764 44.9676C15.6982 45.0178 15.9294 45.0065 16.1452 44.935L21.9902 42.9875C23.9823 44.1387 26.2126 44.8162 28.5085 44.9675C30.8043 45.1189 33.1042 44.74 35.2303 43.8603C37.3563 42.9806 39.2515 41.6236 40.7691 39.8943C42.2868 38.165 43.3863 36.1097 43.9826 33.8875C44.5789 31.6653 44.656 29.3356 44.208 27.0788C43.7599 24.822 42.7987 22.6986 41.3986 20.8727C39.9986 19.0468 38.1973 17.5675 36.1341 16.5492C34.0708 15.5308 31.801 15.0008 29.5002 15ZM24.5002 27.5C24.5002 27.1685 24.6319 26.8505 24.8663 26.6161C25.1007 26.3817 25.4186 26.25 25.7502 26.25H33.2502C33.5817 26.25 33.8996 26.3817 34.1341 26.6161C34.3685 26.8505 34.5002 27.1685 34.5002 27.5C34.5002 27.8315 34.3685 28.1495 34.1341 28.3839C33.8996 28.6183 33.5817 28.75 33.2502 28.75H25.7502C25.4186 28.75 25.1007 28.6183 24.8663 28.3839C24.6319 28.1495 24.5002 27.8315 24.5002 27.5ZM25.7502 31.25H30.7502C31.0817 31.25 31.3996 31.3817 31.6341 31.6161C31.8685 31.8505 32.0002 32.1685 32.0002 32.5C32.0002 32.8315 31.8685 33.1495 31.6341 33.3839C31.3996 33.6183 31.0817 33.75 30.7502 33.75H25.7502C25.4186 33.75 25.1007 33.6183 24.8663 33.3839C24.6319 33.1495 24.5002 32.8315 24.5002 32.5C24.5002 32.1685 24.6319 31.8505 24.8663 31.6161C25.1007 31.3817 25.4186 31.25 25.7502 31.25Z" fill="white"/>
</svg>
