<svg width="25" height="24" viewBox="0 0 25 24" fill="none" xmlns="http://www.w3.org/2000/svg">
<path d="M10.372 2.0808L10.0439 1.87502C9.40169 1.48127 8.60012 1.25252 7.91106 1.46721C7.17044 1.69784 6.57981 2.2683 6.27044 3.12518L5.82981 2.8983C5.07044 2.50737 4.67294 2.50127 4.34341 2.6494C4.08044 2.76705 3.80622 3.05018 3.49544 3.46362L7.35794 6.45002C7.96262 6.6469 8.84856 6.64221 9.7345 6.41252C10.6251 6.18284 11.5111 5.73284 12.1579 5.12815L13.6157 1.52346C12.3314 0.508617 11.1595 1.09643 10.372 2.0808ZM12.8611 5.66721C12.0642 6.47346 10.8782 7.01721 9.95481 7.26096C9.63137 7.34534 9.30794 7.40627 8.99387 7.43909C8.82044 7.72502 8.67512 8.01565 8.56262 8.30627C8.78762 9.45002 9.2095 10.3875 9.84231 11.1563L9.16731 11.7188C8.77825 11.25 8.43137 10.7438 8.16887 10.1813C8.12669 11.2688 8.37044 12.3938 8.76887 13.5656L7.93919 13.8469C7.20794 11.7094 6.9595 9.52034 7.98606 7.45784C7.63919 7.42971 7.31106 7.36409 7.00637 7.25627L6.99231 7.25159C6.79075 7.44377 6.59856 7.64534 6.41575 7.85627C4.93591 9.5719 4.12075 11.8547 4.54731 13.6313C4.77559 14.5828 5.18481 15.4828 5.77356 16.2516C6.63606 16.2328 7.45169 16.2516 8.19231 16.5328C8.54387 16.4953 8.90481 16.4719 9.27981 16.4719C10.6157 16.4719 11.8251 16.7203 12.7392 17.1516C13.0954 17.3203 13.4189 17.5219 13.6767 17.7516C13.6767 17.5031 13.7142 17.236 13.7892 17.0391C13.372 16.6453 13.1095 16.1672 13.1095 15.6235C13.1095 14.8688 13.6111 14.2453 14.3376 13.7953C14.3376 13.5797 14.3798 13.3735 14.4548 13.1766C13.9814 12.7688 13.6767 12.2625 13.6767 11.6719C13.6767 11.3016 13.7986 10.9641 14.0048 10.6594C13.7986 10.3594 13.6767 10.0219 13.6767 9.65159C13.6767 9.46877 13.7048 9.30002 13.7564 9.13596C13.3017 8.73284 13.0157 8.23596 13.0157 7.66409C13.0157 7.0969 13.297 6.60471 13.747 6.20627C13.4704 5.99065 13.1751 5.80784 12.8611 5.66721ZM18.0829 5.77502C16.8642 5.77502 15.7626 6.03284 15.0079 6.41252C14.2486 6.79221 13.8923 7.26096 13.8923 7.66409C13.8923 8.0719 14.2486 8.54065 15.0079 8.92034C15.7626 9.30002 16.8642 9.55784 18.0829 9.55784C18.6126 9.55784 19.1142 9.50627 19.5782 9.4219V8.62502C20.2298 8.52659 20.7689 8.34846 21.1157 8.11877V8.94377C21.7017 8.77502 22.2642 8.15159 22.2782 7.66409C22.2782 7.26096 21.922 6.79221 21.1626 6.41252C20.4032 6.03284 19.3064 5.77502 18.0829 5.77502ZM22.6064 8.94846C22.4517 9.11252 22.2689 9.26721 22.0626 9.40784L22.072 10.7672C22.6626 10.4156 22.9392 10.0078 22.9392 9.65159C22.9392 9.42659 22.8314 9.18284 22.6064 8.94846ZM14.5532 9.67034C14.5673 10.0735 14.9236 10.5281 15.6689 10.9031C16.4282 11.2875 17.5251 11.5406 18.7486 11.5406C19.5126 11.5406 20.2298 11.4375 20.8439 11.2688L20.8767 9.99377C20.0704 10.275 19.1142 10.4297 18.0829 10.4297C16.747 10.4297 15.5329 10.1625 14.6142 9.70315C14.5907 9.69377 14.572 9.67971 14.5532 9.67034ZM14.647 11.3016C14.5814 11.4281 14.5532 11.5547 14.5532 11.6719C14.5532 12.0797 14.9095 12.5485 15.6689 12.9281C16.4282 13.3078 17.5251 13.561 18.7486 13.561C19.3673 13.561 19.9532 13.5 20.4829 13.3828V12.2578C19.9392 12.361 19.3579 12.4125 18.7486 12.4125C17.4079 12.4125 16.1939 12.15 15.2751 11.686C15.0454 11.5735 14.8345 11.4422 14.647 11.3016ZM22.8454 11.3016C22.5595 11.5031 22.3111 11.6531 22.0204 11.7797V12.825C22.6439 12.4641 22.9392 12.0422 22.9392 11.6719C22.9392 11.5547 22.9111 11.4281 22.8454 11.3016ZM23.197 13.0266C23.1032 13.1203 23.0001 13.2094 22.8876 13.2985V14.8172C23.3704 14.4891 23.6048 14.1281 23.6048 13.8C23.6048 13.5516 23.4689 13.2844 23.197 13.0266ZM15.2236 13.6828C15.2189 13.725 15.2142 13.7625 15.2142 13.8C15.2142 14.2078 15.5704 14.6719 16.3298 15.0516C17.0892 15.436 18.1907 15.6891 19.4095 15.6891C20.1079 15.6891 20.7736 15.6047 21.3501 15.4641V14.0625C20.5861 14.3063 19.7001 14.4375 18.7486 14.4375C17.4079 14.4375 16.1939 14.1703 15.2751 13.711C15.2564 13.7016 15.2423 13.6922 15.2236 13.6828ZM14.5861 14.686C14.1782 14.9906 13.9861 15.3235 13.9861 15.6235C13.9861 16.0313 14.3423 16.4953 15.1017 16.8797C15.8611 17.2594 16.9579 17.5125 18.1814 17.5125C18.6267 17.5125 19.0579 17.4797 19.4611 17.4188V16.5656H19.4095C18.0689 16.5656 16.8548 16.2985 15.9361 15.8344C15.3501 15.5438 14.8626 15.1547 14.5861 14.686ZM22.2032 16.1203C21.8329 16.2516 21.4298 16.3594 20.9986 16.4297V16.9969C21.0876 16.9594 21.1767 16.9219 21.2611 16.8797C21.7204 16.6453 22.0298 16.3828 22.2032 16.1203ZM22.6345 16.9735C22.4564 17.1516 22.2501 17.311 22.0204 17.4563V18.7969C22.6439 18.4406 22.9392 18.0188 22.9392 17.6485C22.9392 17.4328 22.8407 17.1985 22.6345 16.9735ZM6.28919 17.1047C5.81106 17.1094 5.29544 17.1703 4.76106 17.2969C3.69184 17.5453 2.77262 18 2.17262 18.5016C1.57262 18.9985 1.33825 19.5047 1.40856 19.8656C1.47887 20.2266 1.84919 20.5594 2.57106 20.7516C3.29059 20.9391 4.297 20.9485 5.36575 20.7C5.797 20.5969 6.20012 20.4656 6.57044 20.311V19.3406C7.25481 19.036 7.76575 18.6703 7.99544 18.3141V19.4578C8.56262 18.9703 8.78294 18.4828 8.71731 18.1266C8.65169 17.7656 8.27669 17.4328 7.55481 17.2453C7.19387 17.1516 6.76262 17.1 6.28919 17.1047ZM9.31731 17.3485C9.44387 17.5313 9.53294 17.7375 9.57981 17.9672C9.63137 18.2485 9.60794 18.5203 9.52356 18.7875C9.98762 18.9094 10.4095 19.0735 10.7751 19.2797C10.9814 19.3922 11.1736 19.5281 11.3423 19.6688C11.7642 19.5703 12.1204 19.4297 12.3736 19.261V20.2266C13.1282 19.8703 13.4751 19.4344 13.4751 19.0875C13.4751 18.736 13.1282 18.3 12.3689 17.9438C11.6142 17.5922 10.5267 17.3531 9.31731 17.3485ZM14.5579 17.5828C14.5532 17.6016 14.5532 17.625 14.5532 17.6485C14.5532 18.0563 14.9095 18.5203 15.6689 18.9047C16.4282 19.2844 17.5251 19.5375 18.7486 19.5375C19.3673 19.5375 19.9532 19.4719 20.4829 19.3594V18.0985C19.7892 18.286 19.0064 18.3891 18.1814 18.3891C16.8407 18.3891 15.6267 18.1219 14.7079 17.6625C14.6564 17.6344 14.6048 17.6063 14.5579 17.5828ZM14.6892 19.3313C14.5954 19.486 14.5532 19.636 14.5532 19.7813C14.5532 20.1891 14.9095 20.6531 15.6689 21.0375C16.4282 21.4172 17.5251 21.6703 18.7486 21.6703C19.3673 21.6703 19.9532 21.6047 20.4829 21.4922V20.2547C19.9392 20.3578 19.3579 20.4141 18.7486 20.4141C17.4079 20.4141 16.1939 20.1469 15.2751 19.6828C15.0642 19.5797 14.8673 19.4625 14.6892 19.3313ZM22.8032 19.3313C22.5314 19.5141 22.2923 19.6594 22.0204 19.7766V20.9297C22.6439 20.5735 22.9392 20.1516 22.9392 19.7813C22.9392 19.636 22.897 19.486 22.8032 19.3313ZM9.08762 19.5844C8.92356 19.7906 8.73137 19.9875 8.51575 20.1656C7.7845 20.7797 6.75325 21.2766 5.56262 21.5531C5.13794 21.6516 4.71606 21.7125 4.31106 21.7453C4.46106 21.9938 4.72497 22.2375 5.11122 22.4531C5.75012 22.8141 6.68762 23.0578 7.72825 23.0578C8.20169 23.0578 8.65169 23.0063 9.06419 22.9172V21.9422C9.71106 21.8438 10.2548 21.6656 10.6017 21.436V22.2985C11.0704 21.9703 11.2954 21.6 11.2954 21.2485C11.2954 20.8406 10.9907 20.4047 10.3486 20.0438C10.0017 19.8516 9.57044 19.6922 9.08762 19.5844Z" fill="#81C784"/>
</svg>
