<svg width="25" height="24" viewBox="0 0 25 24" fill="none" xmlns="http://www.w3.org/2000/svg">
<path d="M12.5 2.25C7.11547 2.25 2.75 6.61547 2.75 12C2.75 17.3761 7.12437 21.75 12.5 21.75C17.8841 21.75 22.25 17.3841 22.25 12C22.25 6.62391 17.8761 2.25 12.5 2.25ZM17.5625 13.5H11.9375C11.8878 13.5 11.8401 13.4802 11.8049 13.4451C11.7698 13.4099 11.75 13.3622 11.75 13.3125V5.4375C11.75 5.38777 11.7698 5.34008 11.8049 5.30492C11.8401 5.26975 11.8878 5.25 11.9375 5.25H13.0625C13.1122 5.25 13.1599 5.26975 13.1951 5.30492C13.2302 5.34008 13.25 5.38777 13.25 5.4375V12H17.5625C17.6122 12 17.6599 12.0198 17.6951 12.0549C17.7302 12.0901 17.75 12.1378 17.75 12.1875V13.3125C17.75 13.3622 17.7302 13.4099 17.6951 13.4451C17.6599 13.4802 17.6122 13.5 17.5625 13.5Z" fill="#81C784"/>
</svg>
