<svg width="23" height="18" viewBox="0 0 23 18" fill="none" xmlns="http://www.w3.org/2000/svg">
<path d="M15.2499 9C14.2862 9 13.3543 8.56969 12.6249 7.78875C11.9157 7.02703 11.4826 6.01125 11.4062 4.92938C11.3246 3.77531 11.6767 2.71406 12.3971 1.94063C13.1176 1.16719 14.1249 0.75 15.2499 0.75C16.367 0.75 17.3771 1.17469 18.0953 1.94625C18.8204 2.72531 19.1734 3.78469 19.0918 4.92891C19.0135 6.01219 18.5809 7.0275 17.8731 7.78828C17.1456 8.56969 16.2142 9 15.2499 9ZM21.4295 17.25H9.07088C8.87218 17.2511 8.67589 17.2065 8.49711 17.1198C8.31833 17.0331 8.16182 16.9065 8.03963 16.7498C7.91002 16.58 7.82052 16.383 7.77782 16.1736C7.73512 15.9643 7.74034 15.748 7.79307 15.5409C8.18776 13.9561 9.16557 12.6417 10.6206 11.7403C11.912 10.9406 13.5559 10.5 15.2499 10.5C16.9773 10.5 18.5781 10.9219 19.877 11.7211C21.3353 12.6178 22.3145 13.9397 22.7073 15.5438C22.7594 15.751 22.764 15.9673 22.7208 16.1765C22.6777 16.3857 22.5878 16.5825 22.4579 16.7522C22.3359 16.9082 22.1797 17.0341 22.0014 17.1204C21.8232 17.2067 21.6275 17.251 21.4295 17.25ZM6.39057 9.1875C4.74104 9.1875 3.29073 7.65375 3.1562 5.76891C3.08963 4.80328 3.39057 3.91031 3.99995 3.25547C4.60276 2.60719 5.45307 2.25 6.39057 2.25C7.32807 2.25 8.17182 2.60906 8.77791 3.26109C9.39198 3.92109 9.69198 4.81219 9.62166 5.76984C9.48713 7.65422 8.03729 9.1875 6.39057 9.1875ZM9.46838 10.6617C8.64385 10.2586 7.5737 10.057 6.39104 10.057C5.0101 10.057 3.66901 10.417 2.61432 11.0705C1.41854 11.8125 0.614165 12.893 0.289322 14.1975C0.241783 14.3851 0.237287 14.5811 0.276169 14.7707C0.315051 14.9603 0.396305 15.1387 0.513853 15.2925C0.625391 15.4357 0.768283 15.5514 0.93154 15.6307C1.0948 15.71 1.27407 15.7508 1.45557 15.75H6.6587C6.74652 15.75 6.83155 15.7192 6.89896 15.6629C6.96638 15.6066 7.0119 15.5284 7.0276 15.442C7.03276 15.4125 7.03932 15.383 7.04682 15.3539C7.44432 13.7573 8.37573 12.4083 9.75198 11.4248C9.8026 11.3884 9.84331 11.3398 9.87043 11.2836C9.89755 11.2274 9.91021 11.1653 9.90728 11.103C9.90435 11.0407 9.88591 10.9801 9.85363 10.9267C9.82136 10.8733 9.77627 10.8288 9.72245 10.7972C9.64885 10.7541 9.56448 10.7086 9.46838 10.6617Z" fill="#81C784"/>
</svg>
